                  Yamakasi 2001 DVDRip Xvid fasamoo LKRG

RIPPER                           : fasamoo
Format                           : AVI
Format/Info                      : Audio Video Interleave
File size                        : 555 MiB
Duration                         : 1h 26mn
Overall bit rate                 : 893 Kbps
Writing application              : VirtualDubMod 1.5.4.1 (build 2178/release)
Writing library                  : VirtualDub build 32817/release
Language                         : French
Subtitles                        : English(*.srt)
                                   English;Arabic(*.idx,*.sub)
Genre                            : Action | Drama | Crime

Video
ID                               : 0
Format                           : MPEG-4 Visual
Format profile                   : Advanced Simple@L5
Format settings, BVOP            : Yes
Format settings, QPel            : No
Format settings, GMC             : No warppoints
Format settings, Matrix          : Custom
Codec ID                         : XVID
Codec ID/Hint                    : XviD
Duration                         : 1h 26mn
Bit rate                         : 756 Kbps
Width                            : 416 pixels
Height                           : 320 pixels
Display aspect ratio             : 1.300
Frame rate                       : 25.000 fps
Color space                      : YUV
Chroma subsampling               : 4:2:0
Bit depth                        : 8 bits
Scan type                        : Progressive
Bits/(Pixel*Frame)               : 0.227
Stream size                      : 470 MiB (85%)
Writing library                  : XviD 1.2.1 (UTC 2008-12-04)

Audio
ID                               : 1
Format                           : MPEG Audio
Format version                   : Version 1
Format profile                   : Layer 3
Mode                             : Joint stereo
Mode extension                   : MS Stereo
Codec ID                         : 55
Codec ID/Hint                    : MP3
Duration                         : 1h 26mn
Bit rate mode                    : Constant
Bit rate                         : 128 Kbps
Channel(s)                       : 2 channels
Sampling rate                    : 48.0 KHz
Stream size                      : 79.5 MiB (14%)
Alignment                        : Split accross interleaves
Interleave, duration             : 40 ms (1.00 video frame)
Interleave, preload duration     : 500 ms
Writing library                  : LAME3.98.2


                                 PLOT

Gravity or Police, these guys don't believe in any law. Idolised by the youth of Paris as much as they're hated by the police, they are the Yamakasis, modern samurais. With acrobatic skillfulness and adrenaline pumping belief in their own immortality, they throw themselves out from incredible heights, and jump from roof to roof. Locked doors and "No Trespassing"-signs become irresistible challenges. But one day, whilst mimicking one of the Yamakasi's more dangerous stunts, a young fan gets injured. Only one operation can save the boy, an operation that his family can't afford.






                                 IMBD
                     
                    http://www.imdb.com/title/tt0267129/

